<svg width="25" height="25" viewBox="0 0 25 25" fill="none" xmlns="http://www.w3.org/2000/svg">
<g clip-path="url(#clip0_75_1347)">
<path d="M24.531 9.27227C24.3474 8.72578 23.8743 8.32734 23.3048 8.24023L16.6763 7.22734L13.6989 0.884766C13.445 0.344141 12.9025 0 12.3064 0C11.7099 0 11.1677 0.344141 10.9138 0.884766L7.93604 7.22773L1.30753 8.24063C0.737998 8.32773 0.264951 8.72578 0.0817482 9.27266C-0.101455 9.81953 0.0368263 10.4219 0.439561 10.8352L5.28019 15.7988L4.1337 22.8211C4.03917 23.4023 4.28565 23.9867 4.76651 24.3266C5.24698 24.6664 5.88136 24.7008 6.39815 24.4156L12.3067 21.148L18.2153 24.4156C18.4485 24.5445 18.7052 24.6078 18.9607 24.6078C19.2716 24.6078 19.5825 24.5133 19.847 24.3266C20.3278 23.9871 20.5739 23.4027 20.4794 22.8211L19.3329 15.7988L24.1739 10.8352C24.5759 10.4219 24.7142 9.81953 24.531 9.27227Z" fill="#A8A8A8"/>
</g>
<defs>
<clipPath id="clip0_75_1347">
<rect width="25" height="25" fill="white"/>
</clipPath>
</defs>
</svg>
